<svg width="426" height="469" viewBox="0 0 426 469" fill="none" xmlns="http://www.w3.org/2000/svg">
<path d="M290.78 21.8886H207.631V105.038H290.78V21.8886Z" stroke="#E1E5F0" stroke-width="4.3095"/>
<path d="M211.164 18.3094H204.052V25.422H211.164V18.3094Z" fill="#E1E5F0"/>
<path d="M211.164 101.505H204.052V108.617H211.164V101.505Z" fill="#D8DEED"/>
<path d="M294.36 18.3094H287.247V25.422H294.36V18.3094Z" fill="#CCF2FF"/>
<path d="M294.36 101.505H287.247V108.617H294.36V101.505Z" fill="#CCF2FF"/>
<path d="M304.868 50.89H264.991C261.963 50.89 259.485 48.412 259.485 45.3834V5.50658C259.485 2.47796 261.963 0 264.991 0H304.868C307.897 0 310.375 2.47796 310.375 5.50658V45.3834C310.375 48.412 307.897 50.89 304.868 50.89Z" fill="#E1E5F0"/>
<path d="M298.26 24.8125V24.1372C298.26 23.1234 299.082 22.3016 300.096 22.3016C301.109 22.3016 301.931 23.1234 301.931 24.1372V36.6188C301.931 37.6325 301.109 38.4543 300.096 38.4543C299.332 38.4543 298.678 37.9882 298.401 37.3251C297.269 38.04 295.93 38.4543 294.497 38.4543C290.455 38.4543 287.155 35.1545 287.155 31.1122C287.155 27.0698 290.455 23.7701 294.497 23.7701C295.871 23.7701 297.158 24.151 298.26 24.8125ZM274.977 24.2748H279.817L277.264 15.4378L274.977 24.2748ZM274.028 27.9459L271.724 36.8491C271.47 37.8305 270.469 38.4203 269.487 38.1663C268.506 37.9124 267.916 36.911 268.17 35.9296L273.955 13.5721C274.841 10.2222 279.52 10.1808 280.521 13.4864L286.991 35.8798C287.273 36.8537 286.711 37.8713 285.737 38.1527C284.764 38.4341 283.746 37.8727 283.465 36.8988L280.878 27.9459H274.028ZM294.497 34.7832C296.512 34.7832 298.168 33.1271 298.168 31.1122C298.168 29.0973 296.512 27.4411 294.497 27.4411C292.482 27.4411 290.826 29.0973 290.826 31.1122C290.826 33.1271 292.482 34.7832 294.497 34.7832Z" fill="#F2F6FB"/>
<path d="M284.142 174.699L254.008 155.286C253.606 155.566 253.606 155.566 253.244 155.886L264.509 189.789C264.509 189.789 268.935 189.188 272.354 187.267L277.464 193.832L284.907 188.108L279.797 181.503C281.246 179.222 282.694 176.94 284.142 174.699Z" fill="#E1E5F0"/>
<path d="M259.668 70.391C259.668 67.8574 261.724 65.8036 264.256 65.8036H306.38L323.453 82.6906V136.013C323.453 138.547 321.403 140.601 318.866 140.601H264.256C261.722 140.601 259.668 138.542 259.668 136.014V70.391Z" fill="#F2F6FB"/>
<path d="M292.138 116.343H272.409C272.055 116.343 271.923 116.102 272.118 115.803L285.72 94.8139C285.914 94.5157 286.235 94.5126 286.432 94.7999L296.188 109.133L300.366 102.649C300.559 102.35 300.884 102.338 301.095 102.623L310.86 115.823C311.071 116.107 310.953 116.34 310.599 116.344L301.693 116.428L292.138 116.343ZM300.673 98.0907C298.955 98.0907 297.563 96.7412 297.563 95.0765C297.563 93.4119 298.955 92.0624 300.673 92.0624C302.39 92.0624 303.783 93.4119 303.783 95.0765C303.783 96.7412 302.39 98.0907 300.673 98.0907Z" fill="#E1E5F0"/>
<path d="M306.38 65.8036L323.453 82.6906L307.333 85.5672C304.838 86.0122 303.168 84.3444 303.6 81.8526L306.38 65.8036Z" fill="#E1E5F0"/>
<path d="M411.375 355.633V322.64C411.375 302.632 411.375 282.671 411.375 262.71V232.102C411.375 231.001 392.331 230.083 369.433 230.083H364.66C341.808 230.083 322.719 231.001 322.719 232.102V355.725C322.719 356.826 341.762 357.744 364.66 357.744H369.433C392.285 357.79 411.375 356.826 411.375 355.633Z" fill="#D8DEED"/>
<path d="M275.959 468.151L276.142 468.243C277.106 468.748 278.345 468.472 278.804 467.6L332.539 368.895C333.043 367.977 332.63 366.83 331.667 366.325L331.483 366.233C330.52 365.729 329.281 366.004 328.822 366.876L315.514 391.288C306.841 407.258 298.168 423.181 289.45 439.15L275.087 465.49C274.582 466.407 274.995 467.6 275.959 468.151Z" fill="#D8DEED"/>
<path d="M409.356 364.627H375.719C355.345 364.627 334.971 364.627 314.642 364.627H283.438C282.337 364.627 281.373 365.545 281.373 366.646V366.876C281.373 367.977 282.291 368.895 283.438 368.895H409.447C410.549 368.895 411.512 367.977 411.512 366.876V366.646C411.512 365.545 410.549 364.627 409.356 364.627Z" fill="#D8DEED"/>
<path d="M425.783 465.49L411.42 439.15C402.748 423.181 394.075 407.258 385.356 391.288L372.048 366.876C371.589 366.004 370.351 365.683 369.387 366.234L369.203 366.325C368.24 366.83 367.827 368.023 368.331 368.895L422.066 467.6C422.525 468.472 423.764 468.794 424.728 468.243L424.912 468.151C425.875 467.6 426.288 466.407 425.783 465.49Z" fill="#D8DEED"/>
<path d="M376.259 464.113H330.061C329.743 464.113 329.442 464.174 329.174 464.283L333.258 440.136L365.762 436.121L376.259 464.113ZM318.324 464.217C318.119 464.149 317.899 464.113 317.671 464.113H244.755C244.521 464.113 244.296 464.151 244.087 464.222C243.949 463.996 243.848 463.743 243.791 463.47V463.425C243.791 463.195 243.745 462.966 243.791 462.736C243.837 462.461 243.837 462.231 243.929 461.956C244.525 459.891 246.131 458.147 247.187 457.184C247.324 457.046 247.416 457 247.554 456.908C249.573 455.669 251.638 454.522 253.795 453.559C258.016 451.631 267.378 447.685 270.177 446.262C273.802 444.427 278.804 441.306 284.035 435.708C284.31 435.57 284.677 435.387 284.677 435.387L316.799 434.607C316.799 434.607 316.937 435.066 316.937 435.112L318.543 463.241C318.543 463.592 318.464 463.922 318.324 464.217Z" fill="#474961"/>
<path d="M244.755 464.113H317.717C318.857 464.113 319.782 465.037 319.782 466.178C319.782 467.318 318.857 468.243 317.717 468.243H244.755C243.614 468.243 242.69 467.318 242.69 466.178C242.69 465.037 243.614 464.113 244.755 464.113ZM330.107 464.113H375.995C377.135 464.113 378.06 465.037 378.06 466.178C378.06 467.318 377.135 468.243 375.995 468.243H330.107C328.966 468.243 328.042 467.318 328.042 466.178C328.042 465.037 328.966 464.113 330.107 464.113Z" fill="#DB4497"/>
<path d="M373.472 359.521C373.471 360.201 373.471 360.89 373.471 361.586C373.471 384.972 372.645 418.448 372.37 429.564C372.324 431.017 372.507 434.993 369.754 437.516C368.653 438.499 367.46 438.926 366.725 439.183C358.603 441.876 347.223 441.919 334.741 440.893C333.915 440.808 332.585 440.337 330.795 439.824C328.088 439.012 326.114 436.618 325.839 433.753C324.554 421.184 321.021 386.853 320.745 383.818C320.378 379.97 320.057 375.609 319.782 370.65L318.88 356.27C314.109 355.26 309.563 354.152 305.26 352.991C311.153 376.642 316.902 401.366 321.984 425.932C322.214 427.008 322.627 429.519 321.434 431.896C319.231 436.245 313.495 436.066 299.775 437.77C283.622 439.832 276.876 441.94 273.205 437.59C271.966 436.2 271.553 434.721 271.416 434.048C268.066 416.426 251.454 365.174 244.984 328.405C244.984 328.315 244.938 328.27 244.938 328.181C244.429 325.252 244.517 322.37 245.11 319.666C246.389 307.066 256.898 297.11 269.883 296.839L309.14 296.019C326.302 295.713 381.863 293.923 383.504 295.495C385.145 297.067 385.819 310.236 386.002 315.835C386.002 317.891 386.002 319.991 386.048 322.003C386.048 331.846 384.35 340.857 381.505 347.812C379.532 352.624 377.054 356.43 374.255 358.879C373.996 359.105 373.735 359.319 373.472 359.521Z" fill="#AF60F4"/>
<path opacity="0.176986" d="M373.392 359.581C373.399 351.502 373.444 344.547 373.529 339.982C373.621 336.049 374.309 314.416 365.407 309.927C364.626 309.542 363.846 309.2 362.286 308.644C361.047 308.217 354.623 305.951 346.363 306.293C340.994 306.506 332.918 306.848 326.264 312.235C317.04 319.76 317.27 331.517 317.362 333.441L318.792 356.252C314.01 355.237 309.454 354.125 305.143 352.959C302.163 341.002 299.147 329.32 296.161 318.072C293.408 307.714 283.726 300.988 273.493 302.288C269.684 302.781 265.875 303.275 262.066 303.768C253.579 304.891 247.135 311.225 245.158 319.234C246.631 306.839 257.047 297.107 269.883 296.839L309.14 296.019C326.302 295.713 381.863 293.923 383.504 295.495C385.145 297.067 385.819 310.236 386.002 315.835C386.002 317.891 386.002 319.991 386.048 322.003C386.048 331.846 384.35 340.857 381.505 347.812C379.532 352.624 377.054 356.43 374.255 358.879C373.97 359.128 373.683 359.362 373.392 359.581Z" fill="#444444"/>
<path d="M304.336 265.27L284.597 263.315C282.578 263.132 282.575 258.97 282.516 257.273C282.709 255.537 283.514 252.917 284.966 252.236C284.153 250.824 284.014 248.319 284.633 245.911C285.126 243.991 286.855 242.849 288.646 242.26C290.126 237.471 292.417 229.551 293.267 225.766C295.803 214.245 299.277 209.853 300.472 208.572C301.842 207.055 303.183 205.998 304.078 205.324C310.12 200.842 316.655 199.971 320 199.763C320.09 199.714 320.182 199.71 320.274 199.707L332.938 199.086C334.64 198.891 336.253 198.768 337.708 198.659C342.132 198.349 346.698 198.023 351.204 198.588L365.386 198.788C365.478 198.788 365.57 198.788 365.661 198.833C369.011 198.925 375.573 199.568 381.768 203.835C382.686 204.478 384.063 205.487 385.485 206.956C386.724 208.195 390.349 212.462 393.286 223.888C394.267 227.641 396.833 235.476 398.48 240.211C400.29 240.737 402.058 241.817 402.618 243.719C403.32 246.105 403.268 248.613 402.506 250.052C403.98 250.682 404.876 253.272 405.13 255.001C405.13 256.698 405.272 260.858 403.261 261.112L385.434 263.508C386.697 273.407 386.733 281.671 385.794 287.129C385.794 287.269 385.744 287.457 385.694 287.598C385.447 289.054 385.1 290.275 384.653 291.261C384.604 291.355 384.554 291.449 384.505 291.543C381.977 295.112 361.999 293.844 357.289 293.985C349.556 294.219 340.633 294.266 329.628 294.031C326.208 293.938 319.714 294.548 311.782 292.482C311.732 292.482 311.683 292.435 311.683 292.435C311.683 292.435 310.691 292.153 309.551 291.496C309.006 291.167 308.361 290.791 307.816 290.275C302.859 285.814 303.949 275.154 303.949 275.154C304.079 271.661 304.208 268.37 304.336 265.27Z" fill="#DB4497"/>
<path d="M348.781 185.638L349.279 200.256C349.279 200.577 349.142 200.898 348.866 201.036C347.673 201.77 345.975 202.596 343.865 203.055C340.056 203.927 336.798 203.285 334.962 202.734C334.595 202.642 334.32 202.275 334.32 201.908L334.14 193.743C331.535 194.714 331.682 194.617 331.441 194.698C328.55 195.432 326.072 195.34 325.613 195.248C323.961 195.111 322.217 193.734 320.657 191.394C318.546 188.273 316.665 183.409 315.655 177.582C315.471 176.756 315.426 175.93 315.38 175.104L315.196 166.89C315.15 165.054 315.609 163.264 316.481 161.567C316.848 160.832 317.215 160.236 317.674 159.731C317.772 159.606 317.87 159.484 317.971 159.365C321.578 154.705 328.752 154.094 332.083 154.454C332.496 154.5 333.964 154.683 336.075 154.821C337.222 154.913 338.14 154.913 338.691 154.959C345.528 155.234 348.236 154.408 351.677 156.244C352.32 156.565 353.788 157.391 355.073 158.997C358.698 163.54 357.826 169.413 357.597 171.157C356.771 176.388 353.742 179.601 352.824 180.931C351.787 182.462 350.074 184.316 348.781 185.638ZM285.379 284.226L288.651 263.741L304.309 264.958L304.137 278.969C310.122 278.298 316.043 278.222 319.034 279.516C319.12 279.553 319.205 279.591 319.288 279.63C333.463 276.948 357.737 272.509 372.622 270.648L371.123 265.354L401.95 261.211C403.343 276.382 401.759 294.739 386.446 296.621C368.773 298.793 339.515 298.793 298.672 296.621H278.497C278.212 290.726 282.095 287.336 285.379 284.226Z" fill="#DB9E75"/>
<path d="M356.714 174.489C354.563 174.492 352.512 174.594 350.472 174.708C350.779 173.072 350.534 171.28 349.463 169.786C347.994 167.721 345.241 166.574 343.039 167.308C341.8 167.721 340.974 168.685 340.882 168.777C339.643 170.337 339.368 171.989 339.368 171.989L339.136 174.265C335.45 170.447 330.752 165.619 327.247 161.934C325.18 162.5 321.769 163.066 317.893 162.243C317.363 162.125 316.862 161.949 316.389 161.749C316.419 161.688 316.45 161.627 316.481 161.567C316.848 160.832 317.215 160.236 317.674 159.731C317.771 159.606 317.87 159.484 317.971 159.365C321.578 154.705 328.752 154.094 332.083 154.454C332.496 154.5 333.964 154.683 336.075 154.821C337.222 154.913 338.14 154.913 338.691 154.959C345.528 155.234 348.236 154.408 351.677 156.244C352.32 156.565 353.788 157.391 355.073 158.997C358.698 163.54 357.826 169.413 357.597 171.157C357.404 172.377 357.092 173.487 356.714 174.489ZM317.02 172.631C316.561 172.54 316.423 171.943 316.745 171.622C317.158 171.255 317.892 170.888 318.81 170.888C320.691 170.888 322.71 172.127 320.599 172.677C319.36 173.044 317.892 172.861 317.02 172.631ZM326.473 172.953C326.014 172.861 325.876 172.264 326.244 171.943C326.656 171.576 327.391 171.209 328.354 171.209C330.236 171.209 332.255 172.494 330.144 172.998C328.813 173.411 327.391 173.136 326.473 172.953Z" fill="#482D1F"/>
<path opacity="0.2" d="M285.342 284.337L288.651 263.741L304.309 264.958L304.136 279.045C295.982 279.96 287.712 281.979 286.574 283.143C286.179 283.539 285.766 283.936 285.342 284.337Z" fill="#8C2A00"/>
<path d="M320.599 175.889C320.553 176.669 320.416 177.954 319.957 178.413C319.177 179.102 318.167 176.807 318.764 175.385C318.993 174.788 319.314 174.696 319.682 174.742C320.232 174.834 320.599 175.339 320.599 175.889ZM328.813 175.752C328.859 176.532 328.859 177.817 328.4 178.367C327.712 179.147 326.427 176.945 326.886 175.476C327.07 174.88 327.391 174.742 327.758 174.742C328.309 174.742 328.767 175.201 328.813 175.752Z" fill="#482D1F"/>
<path d="M325.05 185.205C325.372 185.113 326.152 184.883 326.289 184.379C326.289 184.287 326.335 184.149 326.289 184.057C326.106 183.736 325.555 183.92 324.729 183.966C323.261 184.057 322.068 183.92 322.068 183.92C322.068 183.92 322.389 184.838 322.618 185.113C323.123 185.801 324.591 185.342 325.05 185.205Z" fill="#482D1F"/>
<path d="M321.246 180.827C321.16 181.345 321.561 181.853 322.084 181.94C322.199 181.951 322.199 181.951 322.273 181.957C323.047 182.016 323.531 182.038 324.362 182.038C324.616 182.038 324.821 181.833 324.821 181.579C324.821 181.326 324.616 181.121 324.362 181.121C323.557 181.121 323.096 181.099 322.343 181.042L322.195 181.03C322.193 181.028 322.152 180.975 322.153 180.967L322.843 176.045L322.848 175.981V173.274C322.848 173.02 322.642 172.815 322.389 172.815C322.135 172.815 321.93 173.02 321.93 173.274V175.949L321.246 180.827Z" fill="#482D1F"/>
<path d="M350.478 172.289C350.688 173.634 350.446 175.098 349.836 176.275C349.094 177.758 348.05 178.567 346.701 179.19C346.471 179.296 346.37 179.568 346.477 179.799C346.583 180.029 346.855 180.129 347.085 180.023C347.679 179.749 348.149 179.485 348.694 179.063C349.497 178.441 350.169 177.66 350.653 176.691C351.35 175.347 351.625 173.686 351.385 172.147C351.346 171.897 351.111 171.726 350.861 171.765C350.61 171.804 350.439 172.039 350.478 172.289Z" fill="#482D1F"/>
<path d="M320.817 175.987C320.771 176.767 320.634 178.052 320.175 178.511C319.395 179.199 318.385 176.905 318.982 175.482C319.211 174.885 319.532 174.794 319.899 174.84C320.45 174.931 320.817 175.436 320.817 175.987ZM329.031 175.849C329.077 176.629 329.077 177.914 328.618 178.465C327.93 179.245 326.645 177.042 327.104 175.574C327.287 174.977 327.609 174.84 327.976 174.84C328.526 174.84 328.985 175.298 329.031 175.849Z" fill="#482D1F"/>
<path d="M325.268 185.302C325.589 185.21 326.37 184.981 326.507 184.476C326.507 184.384 326.553 184.247 326.507 184.155C326.324 183.834 325.773 184.017 324.947 184.063C323.479 184.155 322.286 184.017 322.286 184.017C322.286 184.017 322.607 184.935 322.836 185.21C323.341 185.899 324.809 185.44 325.268 185.302Z" fill="#482D1F"/>
<path d="M350.696 172.387C350.906 173.731 350.664 175.195 350.053 176.372C349.312 177.856 348.267 178.665 346.919 179.287C346.689 179.393 346.588 179.666 346.694 179.896C346.801 180.126 347.073 180.227 347.303 180.12C347.896 179.847 348.367 179.582 348.912 179.16C349.715 178.538 350.387 177.758 350.871 176.789C351.568 175.445 351.843 173.783 351.603 172.245C351.563 171.995 351.329 171.823 351.078 171.862C350.828 171.902 350.657 172.136 350.696 172.387Z" fill="#482D1F"/>
<path d="M371.789 265.49C371.9 265.853 371.696 266.239 371.333 266.35C370.97 266.462 370.585 266.258 370.473 265.895C369.165 261.645 364.99 248.763 364.107 246.384C363.975 246.027 364.156 245.631 364.513 245.499C364.869 245.367 365.265 245.548 365.398 245.905C366.292 248.316 370.473 261.216 371.789 265.49ZM309.123 226.945C307.976 237.551 307.058 246.013 304.993 265.033C304.952 265.411 304.613 265.684 304.235 265.643C303.857 265.602 303.584 265.262 303.625 264.884C305.69 245.864 306.607 237.403 307.755 226.797C307.795 226.419 308.135 226.146 308.513 226.187C308.891 226.228 309.164 226.567 309.123 226.945Z" fill="#482D1F"/>
<path d="M334.151 193.905L337.91 192.23L334.24 198.28L334.151 193.905Z" fill="#482D1F"/>
<path d="M150.041 467.6L149.858 467.692C148.894 468.197 147.655 467.922 147.196 467.05L93.4613 368.344C92.9565 367.427 93.3695 366.279 94.3332 365.775L94.5167 365.683C95.4804 365.178 96.7194 365.453 97.1783 366.325L110.486 390.738C119.159 406.707 127.832 422.63 136.55 438.599L150.913 464.939C151.418 465.857 151.005 467.05 150.041 467.6Z" fill="#D8DEED"/>
<path d="M18.2965 364.077H51.9325C72.3069 364.077 92.6812 364.077 113.01 364.077H144.214C145.315 364.077 146.279 364.994 146.279 366.096V366.325C146.279 367.427 145.361 368.344 144.214 368.344H18.2047C17.1034 368.344 16.1398 367.427 16.1398 366.325V366.096C16.1398 364.994 17.1034 364.077 18.2965 364.077Z" fill="#D8DEED"/>
<path d="M0.216562 464.939L14.5796 438.599C23.2524 422.63 31.9253 406.707 40.644 390.738L53.9516 366.325C54.4105 365.453 55.6495 365.132 56.6131 365.683L56.7967 365.775C57.7603 366.279 58.1733 367.472 57.6686 368.344L3.9335 467.05C3.47462 467.922 2.23564 468.243 1.27199 467.692L1.08844 467.6C0.124785 467.05 -0.288208 465.857 0.216562 464.939Z" fill="#D8DEED"/>
<path d="M4.48378 233.571L8.84315 268.813C11.5047 290.151 14.1203 311.489 16.7818 332.781L20.82 365.453C20.9576 366.601 20.1775 367.748 19.0762 367.885L18.8468 367.931C17.7455 368.069 16.7359 367.243 16.5524 366.004L0.17029 234.03C0.0326251 232.882 0.812724 231.735 1.91404 231.598L2.14348 231.552C3.29069 231.414 4.34611 232.332 4.48378 233.571Z" fill="#D8DEED"/>
<path d="M81.9555 464.071H106.769C107.916 464.071 108.88 465.013 108.88 466.136C108.88 467.258 107.916 468.2 106.769 468.2H81.301C80.1538 468.2 79.236 467.303 79.1901 466.136C79.1901 465.013 80.1538 464.071 81.301 464.071H81.9555L82.4482 464.438C83.366 465.126 83.5495 466.457 82.8612 467.374C82.1729 468.292 80.8421 468.476 79.9244 467.787L33.8526 433.463C32.9349 432.775 32.7513 431.444 33.4396 430.526C34.128 429.609 35.4587 429.425 36.3765 430.113L81.9555 464.071ZM203.18 468.153H130.31C129.162 468.153 128.245 467.235 128.245 466.088C128.245 464.94 129.162 464.023 130.31 464.023H203.226C204.373 464.023 205.291 464.94 205.291 466.088C205.245 467.235 204.327 468.153 203.18 468.153Z" fill="#F5C84D"/>
<path d="M36.3848 430.151L53.2174 406.294L80.8421 426.347C82.3564 431.486 83.9166 436.626 85.4768 441.811C86.3028 444.519 87.1288 447.18 87.9548 449.842C90.5245 450.851 92.7272 451.769 94.2874 452.457C97.2701 453.742 99.7939 454.935 102.547 456.725C102.547 456.725 104.933 458.193 106.264 460.304C106.677 460.993 107.044 461.773 107.274 462.599C107.365 462.966 107.365 463.333 107.411 463.654C107.404 463.817 107.38 463.99 107.347 464.165C107.15 464.104 106.941 464.071 106.727 464.071H81.913L36.3848 430.151ZM203.754 464.101C203.573 464.05 203.382 464.023 203.183 464.023H130.267C129.979 464.023 129.706 464.08 129.458 464.185C129.327 463.899 129.254 463.58 129.254 463.243L131.266 436.536C131.204 435.618 141.578 435.174 162.385 435.205C162.89 435.205 163.349 435.343 163.762 435.664C168.993 441.262 173.995 444.383 177.62 446.218C180.419 447.641 189.781 451.587 194.002 453.514C196.159 454.478 198.224 455.625 200.243 456.864C200.381 456.956 200.473 457.002 200.61 457.139C201.666 458.103 203.272 459.847 203.868 461.912C203.96 462.187 203.96 462.417 204.006 462.692C204.052 462.921 204.006 463.151 204.006 463.38V463.426C203.956 463.668 203.869 463.895 203.754 464.101Z" fill="#474961"/>
<path d="M74.9628 359.523L56.4885 362.367C40.8894 364.878 23.3238 352.942 21.0443 335.852C20.8208 334.354 20.7314 332.857 20.7314 331.359C20.7314 317.177 21.6464 302.028 36.1929 298.854C50.7395 295.679 147.169 297.973 158.307 297.973C169.444 297.973 173.458 302.358 177.511 308.817C181.564 315.275 180.342 326.324 179.314 333.283C177.481 345.836 176.543 355.438 176.185 365.7C176.096 367.859 175.962 370.149 175.828 372.704C175.023 387.943 174.308 394.242 172.967 414.018C172.475 421.858 172.073 428.641 171.76 433.794C171.626 436.349 169.436 438.375 166.844 438.375H164.207L127.448 438.507C124.677 438.507 122.398 436.261 122.487 433.53L122.979 415.251L123.292 404.328C123.466 398.193 123.641 391.648 123.816 384.991C119.64 390.279 115.834 395.14 112.398 399.574C109.616 403.227 106.429 407.425 102.455 412.718C97.1783 419.739 92.7271 425.796 89.3314 430.477C87.8446 432.486 85.1261 433.158 82.7784 432.216C82.4174 432.077 82.0647 431.9 81.726 431.685L79.2022 430.033L61.7647 418.882L47.5852 409.796C44.8778 408.052 44.0977 404.565 45.8415 402.041L57.3594 385.246L64.2426 375.196C66.6751 371.632 70.2485 366.408 74.9628 359.523Z" fill="#4F52D6"/>
<path opacity="0.176986" d="M123.669 385.163C114.953 396.203 107.855 405.372 102.376 412.672C97.0986 419.693 92.6474 425.75 89.2517 430.431C87.5538 432.725 84.2499 433.276 81.726 431.67L79.2022 430.018L61.7647 418.867L47.5852 409.781C44.8778 408.038 44.0977 404.55 45.8415 402.026L57.3594 385.231L64.2427 375.182C66.6882 371.599 70.2868 366.337 75.0385 359.398L124.537 351.776V353.056L124.224 363.979C124.039 370.934 123.854 378.114 123.669 385.163L123.669 385.163Z" fill="#444444"/>
<path d="M131.379 341.085C129.127 344.493 128.452 345.421 127.767 346.188C127.007 347.039 126.29 348.026 123.991 351.502C123.712 351.925 123.828 352.494 124.251 352.774C124.674 353.053 125.243 352.937 125.523 352.514C127.775 349.107 128.45 348.179 129.135 347.411C129.895 346.561 130.613 345.574 132.911 342.098C133.19 341.675 133.074 341.106 132.651 340.826C132.228 340.546 131.659 340.663 131.379 341.085Z" fill="#482D1F"/>
<path d="M96.7653 244.263C103.511 239.215 120.948 225.494 120.948 225.494C126.639 230.634 112.964 239.857 112.964 239.857" fill="#482D1F"/>
<mask id="mask0" mask-type="alpha" maskUnits="userSpaceOnUse" x="19" y="202" width="77" height="100">
<path d="M72.6216 204.596C74.0581 205.05 75.5074 205.67 76.9416 206.497C82.4023 209.663 85.0179 213.747 89.8362 222.053C93.8743 228.936 97.4536 235.131 94.8839 239.261C93.1761 242.002 89.3556 242.719 86.7847 242.92L86.6699 253.578V254.037L86.4405 276.889C86.0685 284.274 85.6096 290.28 85.0638 294.907C84.2451 301.849 31.8325 304.711 31.8325 296.748C30.5935 293.72 30.1816 283.91 30.2275 280.423L30.6023 246.651C30.0101 246.707 29.4113 246.774 28.8049 246.853C26.2352 246.853 22.2429 246.366 20.3156 243.445C17.5164 239.258 20.7286 232.49 24.3079 224.895C28.6214 215.791 30.4774 210.597 36.2388 207.612C38.7439 206.314 40.8277 205.673 42.49 205.689C45.9027 203.681 49.8525 202.566 54.0434 202.642L64.1388 202.826C67.1439 202.858 70.005 203.484 72.6216 204.596Z" fill="white"/>
</mask>
<g mask="url(#mask0)">
<path d="M72.6216 204.596C74.0581 205.05 75.5074 205.67 76.9416 206.497C82.4023 209.663 85.0179 213.747 89.8362 222.053C93.8743 228.936 97.4536 235.131 94.8839 239.261C93.1761 242.002 89.3556 242.719 86.7847 242.92L86.6699 253.578V254.037L86.4405 276.889C86.0685 284.274 85.6096 290.28 85.0638 294.907C84.2451 301.849 31.8325 304.711 31.8325 296.748C30.5935 293.72 30.1816 283.91 30.2275 280.423L30.6023 246.651C30.0101 246.707 29.4113 246.774 28.8049 246.853C26.2352 246.853 22.2429 246.366 20.3156 243.445C17.5164 239.258 20.7286 232.49 24.3079 224.895C28.6214 215.791 30.4774 210.597 36.2388 207.612C38.7439 206.314 40.8277 205.673 42.49 205.689C45.9027 203.681 49.8525 202.566 54.0434 202.642L64.1388 202.826C67.1439 202.858 70.005 203.484 72.6216 204.596Z" fill="#F5C84D"/>
</g>
<path opacity="0.2" d="M61.5714 202.939C65.9238 202.542 71.8007 203.532 76.9416 206.497C82.4023 209.663 85.09 213.928 89.9083 222.234C93.9464 229.117 97.4536 235.131 94.8839 239.261C93.1943 241.973 89.4366 242.704 86.8672 242.913L87.0259 228.18V227.354C87.2094 214.046 77.0222 203.125 64.2194 202.987L61.5714 202.939Z" fill="#8C2A00"/>
<path d="M134.649 249.866L134.626 253.962C134.648 255.69 132.901 256.873 131.293 256.217L127.513 254.665L109.701 228.04C108.965 226.932 109.281 225.403 110.389 224.667L113.51 222.561C114.618 221.824 116.147 222.141 116.883 223.249L134.649 249.866Z" fill="#F5C84D"/>
<path d="M108.673 237.65L121.245 230.004C122.4 229.32 123.892 229.813 124.556 231.128L125.166 232.29C125.643 233.267 125.542 234.381 125.024 235.205C125.955 235.134 126.847 235.684 127.301 236.71L127.913 237.906C128.485 239.108 128.231 240.51 127.425 241.362C128.544 240.855 129.897 241.366 130.524 242.645L131.134 243.803C131.801 245.165 131.336 246.793 130.184 247.526L122.717 252.053C113.292 258.803 104.457 264.801 96.2124 270.046L96.6638 273.726C106.693 275.239 120.498 277.323 138.078 279.98L138.27 280.009C141.485 279.734 144.289 280.216 146.204 280.612C151.008 280.13 155.763 279.605 160.52 279.126C164.37 278.004 173.011 276.171 173.575 281.661C173.575 281.661 169.867 282.868 164.847 284.465C157.745 286.723 147.974 289.811 142.456 291.572L142.259 291.578L119.525 297.674L82.8377 297.596C82.7972 297.448 82.7569 297.3 82.7168 297.153C84.0918 296.458 84.9195 295.695 85.0282 294.875C85.6414 290.25 86.1007 284.238 86.4059 276.838L86.4134 276.094C75.0233 282.891 64.9049 288.07 56.0583 291.63C50.8271 293.741 45.6876 295.622 40.6858 297.274C29.0302 299.568 24.0784 292.996 22.7477 291.665C21.1875 290.105 18.0212 285.746 23.7572 259.956C24.8473 255.062 25.9871 250.635 27.0701 246.755C27.6746 246.811 28.2499 246.83 28.7675 246.83C39.9265 245.384 48.5554 247.965 59.3509 247.097C58.0244 250.48 56.3011 254.537 54.1811 259.268C64.8267 255.62 75.6682 251.529 86.7056 246.997L86.7504 242.833C88.4998 242.697 90.8275 242.321 92.6755 241.232C92.6787 241.252 92.6819 241.272 92.6851 241.291L93.0601 244.348C98.1201 242.207 103.221 239.975 108.362 237.651C108.43 237.617 108.534 237.617 108.673 237.65ZM53.1319 202.385C54.1324 199.755 55.1158 197.43 56.1628 194.663C56.1594 194.661 56.1565 194.659 56.1543 194.658L57.1198 186.657C57.028 186.152 56.6131 186.352 56.1543 186.214C54.9612 185.893 53.9256 184.897 53.0996 183.98C51.5853 182.236 51.336 179.698 52.0702 177.358C52.988 175.109 55.3742 173.411 57.5768 173.595C58.4028 173.687 59.1829 174.008 59.9171 174.467L59.963 174.513C60.1924 174.742 60.5136 174.788 60.8348 174.834C61.6149 174.834 62.2574 174.283 62.3033 173.503L62.7163 161.526C62.7163 160.746 63.3128 160.196 64.0929 160.196C65.7908 160.196 67.4427 160.104 69.1406 159.737C69.37 159.737 69.5536 159.691 69.7372 159.691C71.3891 159.507 80.2455 158.957 85.0179 165.519C85.4309 166.161 85.8439 166.803 86.1651 167.446C86.9911 169.098 87.3582 170.933 87.2205 172.861L86.7158 181.212C86.624 182.038 86.5322 182.864 86.3487 183.736C84.146 194.061 79.4654 201.22 75.5191 201.449C73.5 201.495 71.4809 201.266 69.5077 200.669C69.2623 200.546 69.4179 200.642 66.6599 199.527L66.081 202.654C68.6656 203.144 71.3315 203.933 74.0251 205.116C73.1533 206.263 72.2151 207.323 71.2515 208.057C60.789 216.225 36.8194 207.417 40.9575 205.732C42.988 204.906 47.4027 203.168 53.1319 202.385Z" fill="#BF865F"/>
<path opacity="0.2" d="M86.697 275.803C89.778 273.962 92.9519 272.003 96.2187 269.926L96.6948 273.758C103.37 274.787 117.209 276.874 138.212 280.021C138.218 280.02 138.225 280.02 138.232 280.019C141.527 279.709 144.401 280.261 146.354 280.665C151.157 280.183 155.763 279.605 160.52 279.126C164.37 278.004 173.011 276.171 173.575 281.661C173.11 281.824 170.15 282.732 165.129 284.329C158.027 286.587 148.256 289.675 142.738 291.436L142.542 291.442L119.807 297.539L83.1197 297.461C83.0792 297.312 83.0389 297.165 82.9988 297.017C84.3739 296.322 85.2015 295.559 85.3103 294.739C85.9235 290.115 86.3827 284.102 86.688 276.702L86.697 275.803ZM86.989 246.734L87.0325 242.698C88.6888 242.568 90.8634 242.225 92.6585 241.264L93.0254 244.218C91.0068 245.071 88.9947 245.91 86.989 246.734Z" fill="#8C2A00"/>
<path d="M193.36 269.217C193.727 270.639 192.901 272.062 191.479 272.429L127.786 289.591C126.363 289.958 124.941 289.132 124.574 287.71C124.206 286.287 125.032 284.865 126.455 284.497L190.148 267.335C191.524 267.014 192.993 267.84 193.36 269.217Z" fill="#474961"/>
<path d="M42.4059 173.37C42.4719 170.691 43.0677 167.131 45.4164 164.188C46.3801 162.949 47.665 162.031 49.0416 161.343C52.7127 159.507 55.5118 160.425 62.7622 160.242C64.2306 160.242 66.3873 160.012 69.1406 159.737C71.0222 159.504 82.3464 158.057 85.0179 165.519C84.0757 165.335 81.8517 165.289 79.7867 165.794C70.8844 167.997 68.2688 183.415 64.1847 182.773C64.1459 182.768 64.1045 182.761 64.0608 182.751L64.0929 182.727L62.1197 177.312C61.6609 176.211 60.8808 175.339 59.963 174.604C59.2288 174.146 58.4487 173.824 57.6227 173.733C55.4201 173.549 53.0339 175.247 52.1161 177.495C51.2442 179.744 51.6572 182.268 53.2633 184.012C54.2729 185.159 55.6495 185.939 57.1638 186.214L57.2784 186.212C56.9877 189.645 56.5528 194.258 56.1224 194.89C55.4365 196.69 54.7854 198.261 54.1368 199.869C53.212 199.794 52.3913 199.715 51.749 199.659C49.7299 199.476 46.7472 199.246 42.9844 199.017C42.9844 199.017 42.709 199.017 42.4796 198.971C41.2865 198.788 40.1393 198.604 38.9921 198.007C38.9921 198.007 38.625 197.87 38.3038 197.594C31.8336 192.271 30.411 184.654 33.1643 180.386C35.1375 177.404 38.9921 176.256 39.5428 176.073C40.277 175.843 41.0112 175.752 41.6536 175.706C41.9044 174.954 42.1551 174.163 42.4059 173.37ZM80.2456 178.78C79.3278 179.01 77.8135 179.239 76.5745 178.918C74.4178 178.459 76.4369 177.174 78.41 177.082C79.3278 177.037 80.062 177.404 80.5209 177.771C80.8421 178.092 80.7045 178.689 80.2456 178.78ZM88.0466 178.597C87.1288 178.918 85.7063 179.331 84.3755 179.102C82.127 178.78 84.0543 177.312 85.9816 177.082C86.9911 176.945 87.6795 177.266 88.1842 177.587C88.5972 177.863 88.5054 178.459 88.0466 178.597Z" fill="#482D1F"/>
<path d="M84.6508 184.379C84.2378 183.828 84.3755 182.589 84.5131 181.763C84.559 181.166 85.1097 180.799 85.6144 180.799C85.9357 180.845 86.3487 181.029 86.4404 181.671C86.7616 183.186 85.2014 185.296 84.6508 184.379ZM77.0792 184.425C76.6204 183.874 76.8039 182.589 76.9416 181.809C76.9875 181.212 77.5381 180.845 78.0429 180.845C78.3641 180.891 78.7771 181.075 78.8689 181.717C79.1901 183.231 77.6758 185.342 77.0792 184.425Z" fill="#482D1F"/>
<path d="M84.1878 180.907C84.2218 180.656 84.0459 180.425 83.7947 180.391C83.5436 180.357 83.3124 180.532 83.2784 180.784L82.9112 183.491L82.9071 183.548L82.8617 188.411C82.8442 188.466 82.8008 188.502 82.7408 188.508C82.1652 188.447 81.4728 188.448 80.661 188.51C80.4083 188.529 80.2191 188.75 80.2384 189.002C80.2577 189.255 80.4782 189.444 80.7309 189.425C81.5055 189.366 82.1537 189.366 82.6729 189.424L82.7235 189.426C83.2595 189.426 83.6882 189.045 83.7727 188.538L83.7789 188.467L83.8246 183.586L84.1878 180.907Z" fill="#482D1F"/>
<path d="M80.1538 192.96C79.8326 192.914 79.0066 192.73 78.823 192.226C78.823 192.134 78.7312 191.996 78.7771 191.904C78.9148 191.675 80.3373 191.675 80.3373 191.675C82.2187 191.721 82.6776 191.629 82.8153 191.858C82.8612 191.996 82.8612 192.18 82.54 192.593C82.127 193.373 80.6127 193.097 80.1538 192.96Z" fill="#482D1F"/>
<path d="M53.8931 258.643C54.2384 258.484 54.6473 258.635 54.8063 258.98C54.9653 259.325 54.8143 259.734 54.469 259.893L39.9225 266.593C39.5772 266.752 39.1684 266.601 39.0093 266.256C38.8503 265.91 39.0013 265.502 39.3466 265.343L53.8931 258.643ZM61.8378 237.471C61.7112 237.112 61.8993 236.719 62.2578 236.593C62.6162 236.466 63.0094 236.654 63.1359 237.013C63.1681 237.104 63.2218 237.267 63.2899 237.491C63.4022 237.861 63.5142 238.272 63.6187 238.713C63.9041 239.917 64.0817 241.121 64.0982 242.257C64.1489 245.774 62.6293 248.026 59.1279 247.98C58.7478 247.975 58.4437 247.662 58.4487 247.282C58.4538 246.902 58.766 246.598 59.1461 246.603C61.7311 246.637 62.7626 245.109 62.7217 242.277C62.7069 241.254 62.5432 240.145 62.2792 239.03C62.1815 238.618 62.0769 238.235 61.9726 237.891C61.9107 237.687 61.8633 237.543 61.8378 237.471Z" fill="#482D1F"/>
<path d="M66.7544 199.476L63.0375 197.962L65.2401 206.267L66.7544 199.476Z" fill="#482D1F"/>
<path d="M389.073 294.786H21.5087C19.7346 294.786 18.2965 296.224 18.2965 297.998C18.2965 299.772 19.7346 301.21 21.5087 301.21H389.073C390.847 301.21 392.285 299.772 392.285 297.998C392.285 296.224 390.847 294.786 389.073 294.786Z" fill="#D8DEED"/>
<path d="M229.85 158.088H99.5911C94.4763 158.088 90.2991 153.627 90.2991 148.165V56.5405C90.2991 51.0785 94.4763 46.6179 99.5911 46.6179H229.85C234.964 46.6179 239.142 51.0785 239.142 56.5405V148.12C239.142 153.627 234.964 158.088 229.85 158.088Z" fill="#F2F6FB"/>
<path d="M133.123 108.499C139.946 108.499 145.477 103.064 145.477 96.36C145.477 89.656 139.946 84.2214 133.123 84.2214C126.3 84.2214 120.768 89.656 120.768 96.36C120.768 103.064 126.3 108.499 133.123 108.499Z" fill="#FFCB3D"/>
<path d="M163.715 108.499C170.538 108.499 176.069 103.064 176.069 96.36C176.069 89.656 170.538 84.2214 163.715 84.2214C156.892 84.2214 151.36 89.656 151.36 96.36C151.36 103.064 156.892 108.499 163.715 108.499Z" fill="#3ABF7C"/>
<path d="M194.307 108.499C201.13 108.499 206.662 103.064 206.662 96.36C206.662 89.656 201.13 84.2214 194.307 84.2214C187.484 84.2214 181.953 89.656 181.953 96.36C181.953 103.064 187.484 108.499 194.307 108.499Z" fill="#A339FF"/>
<path d="M206.409 128.151H123.375C122.098 128.151 121.062 129.187 121.062 130.464C121.062 131.74 122.098 132.776 123.375 132.776H206.409C207.685 132.776 208.721 131.74 208.721 130.464C208.721 129.187 207.685 128.151 206.409 128.151Z" fill="#E1E5F0"/>
<path d="M206.264 118.903H123.519C122.162 118.903 121.062 120.003 121.062 121.36C121.062 122.716 122.162 123.816 123.519 123.816H206.264C207.621 123.816 208.721 122.716 208.721 121.36C208.721 120.003 207.621 118.903 206.264 118.903Z" fill="#E1E5F0"/>
<path d="M89.882 52.43C89.882 48.9184 92.728 46.0717 96.2425 46.0717H232.658C236.171 46.0717 239.019 48.9176 239.019 52.43V58.7883H89.882V52.43Z" fill="#E1E5F0"/>
<path d="M98.5596 55.3201C100.103 55.3201 101.354 54.0909 101.354 52.5745C101.354 51.0582 100.103 49.8289 98.5596 49.8289C97.0163 49.8289 95.7651 51.0582 95.7651 52.5745C95.7651 54.0909 97.0163 55.3201 98.5596 55.3201Z" fill="#FF5645"/>
<path d="M107.678 55.3201C109.222 55.3201 110.473 54.0909 110.473 52.5745C110.473 51.0582 109.222 49.8289 107.678 49.8289C106.135 49.8289 104.884 51.0582 104.884 52.5745C104.884 54.0909 106.135 55.3201 107.678 55.3201Z" fill="#FFCB3D"/>
<path d="M117.091 55.3201C118.635 55.3201 119.886 54.0909 119.886 52.5745C119.886 51.0582 118.635 49.8289 117.091 49.8289C115.548 49.8289 114.297 51.0582 114.297 52.5745C114.297 54.0909 115.548 55.3201 117.091 55.3201Z" fill="#3ABF7C"/>
<path d="M242.482 293.184C242.939 293.992 243.807 294.538 244.8 294.538H310.742C312.21 294.538 313.357 293.345 313.357 291.876C313.357 290.408 312.164 289.215 310.742 289.215H246.601L224.243 229.055C223.738 227.679 222.223 226.991 220.847 227.495C219.47 228 218.782 229.514 219.287 230.891L242.277 292.748C242.333 292.902 242.402 293.048 242.482 293.184Z" fill="#474961"/>
</svg>
